<svg id="icon" xmlns="http://www.w3.org/2000/svg" viewBox="0 0 70 70"><defs><style>.cls-1{fill:#7e89a1;}</style></defs><title>icons</title><path class="cls-1" d="M68.81,34.5c-1.56-1.27-4.06,0-6.07,1.22l-.2.12C60.64,37,57,39.34,54.44,41a1.07,1.07,0,0,0-.4.49c-.49,1.34-2.46,2.46-5.56,3.16a97.58,97.58,0,0,1-12.52,1,.69.69,0,0,1-.48-.19.63.63,0,0,1-.2-.47.66.66,0,0,1,.64-.67c4.88-.13,13.49-.59,16.36-2.24a3.14,3.14,0,0,0,1.56-2.39c0-1.74-1.18-2.52-2.49-3.11a12,12,0,0,0-2.73-.73c-1-.09-2.09-.14-3.36-.14a88.67,88.67,0,0,1-10.14-.77,52.17,52.17,0,0,0-5.28-.47c-4.7,0-8.11.37-11.65,2.29-1.83,1-3.62,2-5.43,3.17a2.66,2.66,0,0,0-4.16-1L1,45.11a2.67,2.67,0,0,0-1,2.08V67.3a2.7,2.7,0,0,0,4.14,2.28l7.61-4.85h0A2.69,2.69,0,0,0,13,62.46V60.6l.45-.32a54.09,54.09,0,0,1,5.18-3.5c1.86-.76,5.87-.32,9.75.11a76,76,0,0,0,7.74.58c7.29,0,14.93-.64,21.37-5.3,3.25-2.24,8.77-8.23,11.34-12.32C69.56,38.71,71.06,36.34,68.81,34.5ZM11,62.46a.7.7,0,0,1-.32.59L3.07,67.89A.7.7,0,0,1,2,67.3V47.19a.67.67,0,0,1,.25-.53l7.62-6.23a.63.63,0,0,1,.43-.16.69.69,0,0,1,.3.07A.66.66,0,0,1,11,41ZM67.14,38.79c-2.42,3.84-7.76,9.65-10.81,11.75-6,4.33-13.25,4.93-20.21,4.93a72.83,72.83,0,0,1-7.52-.57c-4.32-.47-8.4-.92-10.72,0A37.78,37.78,0,0,0,13,58.14v-16c2.05-1.3,4.06-2.5,6.15-3.62,3.18-1.72,6.21-2,10.69-2,1.2,0,3,.21,5,.45a89.52,89.52,0,0,0,10.38.79,30.49,30.49,0,0,1,3.1.13,9.47,9.47,0,0,1,2.18.57c1.3.59,1.3.89,1.3,1.24a1.29,1.29,0,0,1-.57.7c-2.1,1.21-9.33,1.81-15.4,2A2.67,2.67,0,1,0,36,47.63c3.35-.11,10.36-.46,12.9-1.05,3.68-.83,6-2.21,6.86-4.09,2.53-1.61,6-3.82,7.8-4.94l.21-.13c3-1.85,3.69-1.42,3.76-1.37C68.17,36.56,68.25,37.05,67.14,38.79ZM37,31.85A15.93,15.93,0,0,0,37,0h0a15.93,15.93,0,0,0,0,31.85ZM37,2A13.93,13.93,0,1,1,23.08,15.93,14,14,0,0,1,37,2Zm0,25.85A11.93,11.93,0,0,0,37,4h0a11.93,11.93,0,0,0,0,23.85ZM37,6a9.93,9.93,0,1,1-9.92,9.93A9.94,9.94,0,0,1,37,6Zm1,11.89c0-.55-.47-.9-1.56-1.26-1.56-.53-2.63-1.26-2.63-2.67a2.59,2.59,0,0,1,2.36-2.59V10h1.56v1.27a5.14,5.14,0,0,1,2.12.48l-.43,1.64a4.88,4.88,0,0,0-2.11-.49c-1,0-1.26.4-1.26.81s.51.79,1.76,1.25c1.74.62,2.45,1.42,2.45,2.73a2.65,2.65,0,0,1-2.45,2.69v1.47H36.18V20.49a5.84,5.84,0,0,1-2.45-.63l.44-1.7a5.27,5.27,0,0,0,2.43.63C37.44,18.79,38,18.47,38,17.89Z"/></svg>