<svg id="icon" xmlns="http://www.w3.org/2000/svg" viewBox="0 0 70 70"><defs><style>.cls-1{fill:#7e89a1;}</style></defs><title>icons</title><path class="cls-1" d="M69.74,38.33,60,27.67V10a2,2,0,0,0-2-2H50a2,2,0,0,0-2,2v4.55L35.74,1.14a1,1,0,0,0-1.48,0L.26,38.33A1,1,0,0,0,.08,39.4,1,1,0,0,0,1,40H7V67a1,1,0,0,0,1,1H62a1,1,0,0,0,1-1V40h6a1,1,0,0,0,.92-.6A1,1,0,0,0,69.74,38.33ZM62,38a1,1,0,0,0-1,1V66H9V39a1,1,0,0,0-1-1H3.27L35,3.3,48.26,17.8A1,1,0,0,0,50,17.13V10h8V28.06a1,1,0,0,0,.26.68L66.73,38ZM42.33,30.8A11,11,0,0,0,25.52,44.57,16.21,16.21,0,0,1,26.9,47.4l3.16,8.93A1,1,0,0,0,31,57h8a1,1,0,0,0,.94-.67L43.1,47.4a15.44,15.44,0,0,1,1.38-2.82A11,11,0,0,0,42.33,30.8Zm.42,12.76a18.18,18.18,0,0,0-1.54,3.18L38.29,55H37.15L39,42.14a1,1,0,1,0-2-.28L35.13,55h-.26L33,41.86a1,1,0,0,0-2,.28L32.85,55H31.71l-2.92-8.26a18.15,18.15,0,0,0-1.55-3.18A9,9,0,0,1,34,30.06a8.9,8.9,0,0,1,7,2.23A9,9,0,0,1,44,39,8.91,8.91,0,0,1,42.75,43.56ZM40,59a1,1,0,0,1-1,1H31a1,1,0,0,1,0-2h8A1,1,0,0,1,40,59Zm0,3a1,1,0,0,1-1,1H31a1,1,0,0,1,0-2h8A1,1,0,0,1,40,62ZM34,25V18.6a1,1,0,0,1,2,0V25a1,1,0,0,1-2,0Zm6,.89,2.7-5.8a1,1,0,1,1,1.82.84l-2.7,5.8a1,1,0,0,1-.91.58,1,1,0,0,1-.42-.09A1,1,0,0,1,40,25.89Zm11.26.77-4.91,4.12a1,1,0,0,1-.64.23,1,1,0,0,1-.77-.36,1,1,0,0,1,.13-1.41L50,25.12a1,1,0,0,1,1.28,1.54Zm-3.72,9a1,1,0,0,1,.71-1.23l6.18-1.66A1,1,0,1,1,55,34.69l-6.18,1.66-.26,0A1,1,0,0,1,47.55,35.64Zm8.52,7.07a1,1,0,0,1-1,.83h-.17l-6.31-1.11a1,1,0,0,1-.82-1.16A1,1,0,0,1,49,40.45l6.31,1.1A1,1,0,0,1,56.07,42.71ZM25.47,20.93a1,1,0,1,1,1.82-.84L30,25.9a1,1,0,0,1-.49,1.33,1,1,0,0,1-.42.09,1,1,0,0,1-.91-.58ZM24.29,31a1,1,0,0,1-.64-.23l-4.92-4.13A1,1,0,0,1,20,25.12l4.92,4.13a1,1,0,0,1,.13,1.41A1,1,0,0,1,24.29,31Zm-1.84,4.62a1,1,0,0,1-1,.74l-.26,0L15,34.69a1,1,0,1,1,.52-1.94l6.18,1.66A1,1,0,0,1,22.45,35.64Zm-.24,5.62a1,1,0,0,1-.82,1.16l-6.31,1.11h-.17a1,1,0,0,1-.17-2l6.31-1.1A1,1,0,0,1,22.21,41.26Z"/></svg>