<svg id="icon" xmlns="http://www.w3.org/2000/svg" viewBox="0 0 70 70"><defs><style>.cls-1{fill:#7e89a1;}</style></defs><title>icons</title><path class="cls-1" d="M69.71,42.5c-1.2-2.52-5.27-11.11-5.92-12.57a2.39,2.39,0,0,0-1.5-1.43,2.27,2.27,0,0,0-2,.41c-4.31,2.95-7.35,4.45-9,4.47a15,15,0,0,1-2.81-.25,31.85,31.85,0,0,0,7.47-20.55V6.86a1,1,0,0,0-.72-1L35.28,0a1.06,1.06,0,0,0-.56,0L14.79,5.9a1,1,0,0,0-.72,1v5.72a31.89,31.89,0,0,0,7.51,20.6l-.52.11a12.09,12.09,0,0,1-2.27.1,11.11,11.11,0,0,1-3.71-1.2,45.46,45.46,0,0,1-5.43-3.3,2.36,2.36,0,0,0-1.88-.41,2.38,2.38,0,0,0-1.56,1.44C5.57,31.34,1.69,39.55.29,42.5A2.35,2.35,0,0,0,1,45.59c.92.7,5.22,3.87,8.36,6.18l2.17,1.6a3.46,3.46,0,0,0,0,4.84,3.41,3.41,0,0,0,2.44,1,3.56,3.56,0,0,0,1.81-.51,3.44,3.44,0,0,0,5.23,3.8c0,.1,0,.2,0,.3a3.45,3.45,0,0,0,5.35,2.88,3.5,3.5,0,0,0-.12.86,3.44,3.44,0,0,0,5.53,2.74,1.27,1.27,0,0,0,.13.11A4.69,4.69,0,0,0,34.2,70a4.57,4.57,0,0,0,2.94-1.06h0c.11-.09.23-.2.33-.3A4.65,4.65,0,0,0,38.55,67l.08-.21a4.65,4.65,0,0,0,5.57-3.53,4.72,4.72,0,0,0,4.71-1.14,4.55,4.55,0,0,0,1.32-2.6,4.68,4.68,0,0,0,5.53-4.58,2.71,2.71,0,0,0,1.71-.68c.86-.72,2.16-1.75,3.09-2.49l.15-.12c.8-.63,3-2.23,4.94-3.64,1.42-1,2.72-2,3.31-2.42A2.34,2.34,0,0,0,69.71,42.5ZM16.07,7.61,35,2,53.93,7.61v5a29.87,29.87,0,0,1-7.66,20c-.6-.19-1.23-.4-1.92-.67L44,31.79a13.06,13.06,0,0,0-4.19-1.16,3.93,3.93,0,0,0-2.84.8l-1.31,1.19.06.06a1,1,0,0,0-.17.14,5.56,5.56,0,0,0-3.1-1.56,30.92,30.92,0,0,0-7.77,1.05c-.12,0-.47.12-.59.16l-.39.12a29.85,29.85,0,0,1-7.66-20ZM13,56.8a1.47,1.47,0,0,1,0-2.06l4.3-4.29a1.45,1.45,0,1,1,2.06,2l-4.3,4.3A1.46,1.46,0,0,1,13,56.8Zm5.11,3.87a1.46,1.46,0,0,1,0-2.05l4.3-4.3a1.45,1.45,0,1,1,2.06,2l-4.3,4.3A1.45,1.45,0,0,1,18.13,60.67Zm5.36,3.17a1.45,1.45,0,0,1,0-2.06l4.29-4.3a1.48,1.48,0,0,1,1-.42,1.45,1.45,0,0,1,1,2.48l-4.3,4.3A1.44,1.44,0,0,1,23.49,63.84Zm5.23,3.74a1.48,1.48,0,0,1-.43-1,1.46,1.46,0,0,1,.43-1l4.3-4.3A1.05,1.05,0,0,1,33.3,61a1.38,1.38,0,0,1,.74-.21,1.47,1.47,0,0,1,.65.15,1.89,1.89,0,0,1,.38.27,1.38,1.38,0,0,1,.28.4,1.42,1.42,0,0,1-.11,1.45l0,0a1.57,1.57,0,0,1-.15.19l-4.3,4.3A1.49,1.49,0,0,1,28.72,67.58ZM53,56.82a2.64,2.64,0,0,1-3.24.39,1,1,0,0,0-1.5,1.06,2.66,2.66,0,0,1-.73,2.43,2.7,2.7,0,0,1-3.6.16,1,1,0,0,0-1.14-.11,1,1,0,0,0-.49,1,2.64,2.64,0,0,1-.73,2.33,2.7,2.7,0,0,1-3.19.44,1,1,0,0,0-1,0,1,1,0,0,0-.51.85,2.43,2.43,0,0,1-.16.86,2.78,2.78,0,0,1-.61.93,1.85,1.85,0,0,1-.14.14h0l-.05,0a2.66,2.66,0,0,1-2.53.44l3.14-3.13a3.28,3.28,0,0,0,.4-.49,3.4,3.4,0,0,0,.27-3.46,3.17,3.17,0,0,0-.67-1,3.34,3.34,0,0,0-.92-.66,3.44,3.44,0,0,0-3.28.14l-.14.09a3.43,3.43,0,0,0-.89-3.3h0a3.46,3.46,0,0,0-4.37-.42c0-.1,0-.2,0-.3a3.44,3.44,0,0,0-5.25-2.94A3.44,3.44,0,0,0,15.91,49L13,51.94l-2.42-1.78C7.63,48,3.16,44.69,2.25,44c-.29-.22-.31-.31-.16-.64C3.5,40.4,7.39,32.17,8,30.75a.75.75,0,0,1,.22-.32.66.66,0,0,1,.29.13A50.53,50.53,0,0,0,14.19,34a13.14,13.14,0,0,0,4.44,1.39,13.36,13.36,0,0,0,2.7-.11,13,13,0,0,0,2.15-.52c.11,0,1-.28,1.25-.38l.44-.12a27.6,27.6,0,0,1,7.21-1,3.76,3.76,0,0,1,1.69.87c-1.42,1.27-3.79,3.45-7.88,7.19l-.26.27a1.57,1.57,0,0,0-.2.23,2.48,2.48,0,0,0-.46,1A3.91,3.91,0,0,0,26,45.63a4.32,4.32,0,0,0,2.61,1.88,7,7,0,0,0,5.6-1.23c.74-.54,3.22-2.41,4.14-3.11l.32-.25a3.92,3.92,0,0,1,4.46.33l0,0,9.36,9.33,0,0,.58.58a2.7,2.7,0,0,1,.65,1.74A2.63,2.63,0,0,1,53,56.82ZM67.75,44c-.59.45-1.87,1.38-3.27,2.4-2,1.42-4.18,3-5,3.68l-.15.13c-.94.74-2.26,1.78-3.13,2.51-.27.22-.41.24-.52.22l-1.15-1.15a1.83,1.83,0,0,0-.13-.16l-.08-.05L54,51.23l0,0-9.48-9.45,0,0-.08-.06a6.1,6.1,0,0,0-2.15-1.1,6,6,0,0,0-4.65.7h0l-.1.08-.31.23c-.92.69-3.37,2.55-4.11,3.09a5.1,5.1,0,0,1-4.06.87,2.37,2.37,0,0,1-1.31-1,2,2,0,0,1-.43-1.3.46.46,0,0,1,.09-.17l.1-.11a1.59,1.59,0,0,1,.13-.13L37,34.11h0l1.27-1.16c.29-.25.62-.31,1.48-.31a11.39,11.39,0,0,1,3.5,1l.32.13c1.06.41,2,.73,2.92,1a16.92,16.92,0,0,0,4.76.62c2.84,0,7.16-2.76,10.17-4.82a1,1,0,0,1,.28-.14.77.77,0,0,1,.22.33c.67,1.47,4.74,10.08,5.95,12.61h0C68.05,43.67,68.06,43.77,67.75,44ZM26.54,18a1,1,0,1,1,1.58-1.21l5.79,7.52,8.8-13.48a1,1,0,1,1,1.68,1.1L34.81,26.58A1,1,0,0,1,34,27h0a1,1,0,0,1-.79-.39Z"/></svg>