<svg id="icon" xmlns="http://www.w3.org/2000/svg" viewBox="0 0 70 70"><defs><style>.cls-1{fill:#7e89a1;}</style></defs><title>icons</title><path class="cls-1" d="M35,62H32.82A3,3,0,0,0,33,61V59a3,3,0,0,0-3-3H8a3,3,0,0,0-3,3v2a3,3,0,0,0,.18,1H3a3,3,0,0,0-3,3v2a3,3,0,0,0,3,3H35a3,3,0,0,0,3-3V65A3,3,0,0,0,35,62ZM7,61V59a1,1,0,0,1,1-1H30a1,1,0,0,1,1,1v2a1,1,0,0,1-1,1H8A1,1,0,0,1,7,61Zm29,6a1,1,0,0,1-1,1H3a1,1,0,0,1-1-1V65a1,1,0,0,1,1-1H35a1,1,0,0,1,1,1Zm32.26-7L57.8,49.49a5.75,5.75,0,0,0-4.61-1.65L40.31,35a3,3,0,0,0-.13-4.08L40,30.74a2.73,2.73,0,0,0-.83-.57L43.36,26a3,3,0,0,0,2,.75,3,3,0,0,0,2.12-.88l2.94-2.94.06-.07h0l0-.06h0s.07-.1.12-.15.19-.23.28-.35a5.76,5.76,0,0,0,0-7.21c-.09-.12-.18-.24-.28-.35a1.58,1.58,0,0,1-.12-.15L44.05,8.13,37.73,1.81h0l-.14-.13A5.75,5.75,0,0,0,33.49,0a5.81,5.81,0,0,0-4.16,1.75s0,0,0,0l-.07.05L26.31,4.75a3,3,0,0,0-.14,4.07L8.82,26.17a3.06,3.06,0,0,0-4.07.14L1.81,29.25a.46.46,0,0,0-.07.07h0l-.05.06s-.08.1-.13.15-.19.22-.27.33a5.76,5.76,0,0,0,0,7.22c.09.12.19.24.29.35a.88.88,0,0,0,.12.15l6.46,6.46,6.33,6.33h0l.13.14.14.11.37.3a5.77,5.77,0,0,0,3.58,1.28A5.91,5.91,0,0,0,22.19,51a5.08,5.08,0,0,0,.57-.47l.09-.07,0,0,.07-.06,2.94-2.94A3,3,0,0,0,26,43.36l4.15-4.15a3.18,3.18,0,0,0,.58.83l.13.13a3,3,0,0,0,4.08.14L47.84,53.2a5.76,5.76,0,0,0,1.65,4.6L60,68.26a5.81,5.81,0,0,0,8.21,0l.1-.1a5.81,5.81,0,0,0,0-8.21ZM35.8,30.74h0l-2.53,2.53-8.66,8.66L10.25,27.57,27.57,10.25,41.93,24.61ZM33.49,2.05a4,4,0,0,1,2.82,1.17l6.33,6.32L49,15.87a3.92,3.92,0,0,1,.67,4.74l-18.05-18A3.93,3.93,0,0,1,33.49,2.05ZM27.72,6.16,30,3.84l18.3,18.31L46,24.46a1,1,0,0,1-1.42,0L27.72,7.57A1,1,0,0,1,27.72,6.16ZM15.87,49,9.55,42.64,3.22,36.32a4,4,0,0,1-1.17-2.83,4,4,0,0,1,.51-1.91l18,18A4.11,4.11,0,0,1,15.87,49ZM24.46,46l-2.31,2.31L3.84,30l2.32-2.32a1,1,0,0,1,1.41,0L24.46,44.61A1,1,0,0,1,24.46,46Zm7.83-7.27-.13-.13a1,1,0,0,1,0-1.41l5.06-5.06a1,1,0,0,1,1.41,0l.13.13a1,1,0,0,1,0,1.41l-.55.56h0L34.26,38.2h0l-.55.55A1,1,0,0,1,32.29,38.76Zm4.09.15,2.53-2.53L51,48.48a5.53,5.53,0,0,0-1.41,1l-.11.11a5.46,5.46,0,0,0-1,1.41ZM66.85,66.74l-.11.11a3.89,3.89,0,0,1-5.38,0L50.9,56.39a3.79,3.79,0,0,1-1.06-3.21,1,1,0,0,0,.06-.35,3.82,3.82,0,0,1,1-1.82L51,50.9a3.86,3.86,0,0,1,1.84-1,.93.93,0,0,0,.24,0,3.15,3.15,0,0,1,.61-.06,3.8,3.8,0,0,1,2.69,1.11L66.85,61.36a3.81,3.81,0,0,1,0,5.38Z"/></svg>