<svg id="icon" xmlns="http://www.w3.org/2000/svg" viewBox="0 0 57 58"><defs><style>.cls-1{fill:#e7b851;}</style></defs><title>icons</title><path class="cls-1" d="M51,0H6A6,6,0,0,0,0,6V52a6,6,0,0,0,6,6H51a6,6,0,0,0,6-6V6A6,6,0,0,0,51,0Zm4,52a4,4,0,0,1-4,4H6a4,4,0,0,1-4-4V6A4,4,0,0,1,6,2H51a4,4,0,0,1,4,4ZM50,6H7A2,2,0,0,0,5,8V21a2,2,0,0,0,2,2H50a2,2,0,0,0,2-2V8A2,2,0,0,0,50,6Zm0,15H7V8H50Zm0,7H44a2,2,0,0,0-2,2V49a2,2,0,0,0,2,2h6a2,2,0,0,0,2-2V30A2,2,0,0,0,50,28Zm0,21H44V30h6ZM13,41H7a2,2,0,0,0-2,2v6a2,2,0,0,0,2,2h6a2,2,0,0,0,2-2V43A2,2,0,0,0,13,41Zm0,8H7V43h6Zm12-8H19a2,2,0,0,0-2,2v6a2,2,0,0,0,2,2h6a2,2,0,0,0,2-2V43A2,2,0,0,0,25,41Zm0,8H19V43h6Zm12-8H31a2,2,0,0,0-2,2v6a2,2,0,0,0,2,2h6a2,2,0,0,0,2-2V43A2,2,0,0,0,37,41Zm0,8H31V43h6ZM13,28H7a2,2,0,0,0-2,2v6a2,2,0,0,0,2,2h6a2,2,0,0,0,2-2V30A2,2,0,0,0,13,28Zm0,8H7V30h6Zm12-8H19a2,2,0,0,0-2,2v6a2,2,0,0,0,2,2h6a2,2,0,0,0,2-2V30A2,2,0,0,0,25,28Zm0,8H19V30h6Zm12-8H31a2,2,0,0,0-2,2v6a2,2,0,0,0,2,2h6a2,2,0,0,0,2-2V30A2,2,0,0,0,37,28Zm0,8H31V30h6ZM12.33,12.92l-1.27-1.49a6.58,6.58,0,0,1,1.11-.85,4,4,0,0,1,1-.39,4.82,4.82,0,0,1,1.19-.13,3.54,3.54,0,0,1,1.49.29,2.31,2.31,0,0,1,1,.83,2.16,2.16,0,0,1,.36,1.22,3.38,3.38,0,0,1-.12.93,3.55,3.55,0,0,1-.39.84A5.68,5.68,0,0,1,16,15c-.29.31-.91.88-1.86,1.74L14,17h3v2H11V17l2.24-1.89c.6-.63,1-1.06,1.17-1.28a3.1,3.1,0,0,0,.39-.59,1.35,1.35,0,0,0,.11-.52.7.7,0,0,0-.22-.53,1,1,0,0,0-.61-.19,1.73,1.73,0,0,0-.82.23A5.64,5.64,0,0,0,12.33,12.92Zm7.85,2.38H18V13.73h2.18V11.58h1.58v2.15h2.18V15.3H21.76v2.12H20.18Zm6.09-2.38L25,11.43a6.58,6.58,0,0,1,1.11-.85,4,4,0,0,1,1-.39,4.9,4.9,0,0,1,1.2-.13,3.52,3.52,0,0,1,1.48.29,2.25,2.25,0,0,1,1,.83,2.16,2.16,0,0,1,.36,1.22,3.38,3.38,0,0,1-.12.93,3.55,3.55,0,0,1-.39.84,5.68,5.68,0,0,1-.7.87A26.14,26.14,0,0,1,28,17h3v2H25V17l2.18-1.89c.6-.63,1-1.06,1.18-1.28a3,3,0,0,0,.38-.59,1.35,1.35,0,0,0,.11-.52.67.67,0,0,0-.22-.53A.93.93,0,0,0,28,12a1.73,1.73,0,0,0-.82.23A6.09,6.09,0,0,0,26.27,12.92ZM38.19,14H32.25V12.4h5.94Zm0,2.68H32.25V15.06h5.94Zm4.11,2.1h2.28V17.09h1V15.36h-1V10.18H42.44l-3.56,5.21v1.7H42.3Zm-1.41-3.39L41.83,14a7.66,7.66,0,0,0,.46-.85h.06a3.92,3.92,0,0,0,0,.5c0,.32,0,.57,0,.76v1Z"/></svg>