<svg id="icon" xmlns="http://www.w3.org/2000/svg" viewBox="0 0 58 56"><defs><style>.cls-1{fill:#e77051;}</style></defs><title>icons</title><path class="cls-1" d="M52,4H47V0H45V4H30V0H28V4H13V0H11V4H6a6,6,0,0,0-6,6V50a6,6,0,0,0,6,6H52a6,6,0,0,0,6-6V10A6,6,0,0,0,52,4ZM6,6h5V7.1a5,5,0,1,0,2,0V6H28V7.1a5,5,0,1,0,2,0V6H45V7.1a5,5,0,1,0,2,0V6h5a4,4,0,0,1,4,4v8H2V10A4,4,0,0,1,6,6Zm7,3.18a3,3,0,1,1-2,0V12h2Zm17,0a3,3,0,1,1-2,0V12h2Zm17,0a3,3,0,1,1-2,0V12h2ZM52,54H6a4,4,0,0,1-4-4V20H56V50A4,4,0,0,1,52,54ZM13,25H6a1,1,0,0,0-1,1v7a1,1,0,0,0,1,1h7a1,1,0,0,0,1-1V26A1,1,0,0,0,13,25Zm-1,7H7V27h5Zm14-7H19a1,1,0,0,0-1,1v7a1,1,0,0,0,1,1h7a1,1,0,0,0,1-1V26A1,1,0,0,0,26,25Zm-1,7H20V27h5Zm14-7H32a1,1,0,0,0-1,1v7a1,1,0,0,0,1,1h7a1,1,0,0,0,1-1V26A1,1,0,0,0,39,25Zm-1,7H33V27h5Zm14-7H45a1,1,0,0,0-1,1v7a1,1,0,0,0,1,1h7a1,1,0,0,0,1-1V26A1,1,0,0,0,52,25Zm-1,7H46V27h5ZM13,38H6a1,1,0,0,0-1,1v7a1,1,0,0,0,1,1h7a1,1,0,0,0,1-1V39A1,1,0,0,0,13,38Zm-1,7H7V40h5Zm14-7H19a1,1,0,0,0-1,1v7a1,1,0,0,0,1,1h7a1,1,0,0,0,1-1V39A1,1,0,0,0,26,38Zm-1,7H20V40h5Zm14-7H32a1,1,0,0,0-1,1v7a1,1,0,0,0,1,1h7a1,1,0,0,0,1-1V39A1,1,0,0,0,39,38Zm-1,7H33V40h5Zm14-7H45a1,1,0,0,0-1,1v7a1,1,0,0,0,1,1h7a1,1,0,0,0,1-1V39A1,1,0,0,0,52,38Zm-1,7H46V40h5Z"/></svg>