<svg id="icon" xmlns="http://www.w3.org/2000/svg" viewBox="0 0 72 60"><defs><style>.cls-1{fill:#7e89a1;}</style></defs><title>icons</title><path class="cls-1" d="M12,13a6.27,6.27,0,0,0,6-6.5A6.27,6.27,0,0,0,12,0,6.27,6.27,0,0,0,6,6.5,6.27,6.27,0,0,0,12,13ZM12,2a4.27,4.27,0,0,1,4,4.5A4.27,4.27,0,0,1,12,11,4.27,4.27,0,0,1,8,6.5,4.27,4.27,0,0,1,12,2ZM70,59a1,1,0,0,1-1,1H1a1,1,0,0,1,0-2H69A1,1,0,0,1,70,59Zm1-19H70V7h1a1,1,0,0,0,0-2H22a1,1,0,0,0,0,2h1v8.6c-1.31-.42-2.65-.91-3.65-1.33A3.63,3.63,0,0,0,18,14H6a6,6,0,0,0-6,6V30.75A5.25,5.25,0,0,0,5,36V53.5a4.07,4.07,0,0,0,6.85,2.32l.16-.17A4.14,4.14,0,0,0,15,57h.09a3.92,3.92,0,0,0,2.78-1.14A3.61,3.61,0,0,0,19,53.5V21.63c1.18.43,2.59.89,4,1.25V40H22a1,1,0,0,0,0,2H71a1,1,0,0,0,0-2ZM12,23.12l.89,3.57-.89.9-.89-.9Zm0-5.92L11.2,16h1.6Zm6.36,2.06L17,18.73V53.49A2.05,2.05,0,0,1,15.07,55H15a2.18,2.18,0,0,1-2-1.46V37a1,1,0,0,0-2,0V53.49A2.05,2.05,0,0,1,9.07,55H9A2.18,2.18,0,0,1,7,53.5V20a1,1,0,0,0-2,0V34a3.25,3.25,0,0,1-3-3.22V20a4,4,0,0,1,4-4H9a1,1,0,0,0,.17.55l1.75,2.64L9,26.76a1,1,0,0,0,.26.95l2,2a1,1,0,0,0,1.42,0l2-2a1,1,0,0,0,.26-.95l-1.89-7.57,1.75-2.64A1,1,0,0,0,15,16h3a1.57,1.57,0,0,1,.6.12c1.59.66,6.21,2.38,8.42,2.38s6.92-1.39,8.53-1.92a1.5,1.5,0,0,1,.94,2.84c-2.31.77-6.91,2.08-9.47,2.08S20.1,19.93,18.36,19.26Zm6.64,4a12.23,12.23,0,0,0,2,.19c3.47,0,9.44-2,10.11-2.18a3.5,3.5,0,0,0-2.22-6.64A35.77,35.77,0,0,1,27,16.5a9.21,9.21,0,0,1-2-.33V7H68V40H25ZM65,33a1,1,0,0,1-1,1H54a1,1,0,0,1,0-2H64A1,1,0,0,1,65,33ZM54,29H64a1,1,0,0,1,0,2H54a1,1,0,0,1,0-2Zm11,7a1,1,0,0,1-1,1H54a1,1,0,0,1,0-2H64A1,1,0,0,1,65,36ZM61.39,14.67,52.49,26H41.44L30.74,37.68l-1.48-1.36L40.56,24H51.51l8.31-10.57-3.36.41,1.78-2.27L63,11l.57,4.76L61.79,18Z"/></svg>