<svg id="icon" xmlns="http://www.w3.org/2000/svg" viewBox="0 0 60 60"><defs><style>.cls-1{fill:#5dba52;}</style></defs><title>icons</title><path class="cls-1" d="M30,37.59c6.63,0,11.78-9.3,11.78-17.3a12.78,12.78,0,0,0-2.94-8.64,1,1,0,0,0-.24-.27A11.51,11.51,0,0,0,30,8c-6.8,0-11.3,4.36-11.73,11.2a.49.49,0,0,0,0,.12c0,.32,0,.63,0,1C18.22,28.29,23.37,37.59,30,37.59Zm0-2c-5.24,0-9.48-7.84-9.75-14.63a13.9,13.9,0,0,0,18-6.78,11.3,11.3,0,0,1,1.55,6.11C39.78,27.22,35.42,35.59,30,35.59ZM30,10a10,10,0,0,1,6.81,2.45,11.9,11.9,0,0,1-11.12,7.62,12.07,12.07,0,0,1-5.39-1.31C20.94,12.34,25.61,10,30,10ZM49.6,42,36.66,38.89a1,1,0,0,0-1.21.74,1,1,0,0,0,.74,1.2l3.13.76c-.91,4.19-3.15,8.31-6,10.19L31.7,46.21l2.46-2.45a1,1,0,0,0,0-1.42L30.71,38.9a1,1,0,0,0-1.42,0l-3.45,3.44a1,1,0,0,0,0,1.42l2.46,2.45-1.59,5.57c-2.88-1.88-5.12-6-6-10.19l3.13-.76a1,1,0,0,0,.74-1.2,1,1,0,0,0-1.21-.74L10.4,42a8.39,8.39,0,0,0-4.61,3A8.47,8.47,0,0,0,4,50.15,9.86,9.86,0,0,0,13.85,60h32.3A9.87,9.87,0,0,0,56,50.15,8.35,8.35,0,0,0,49.6,42ZM30,41l2,2-2,2-2-2Zm0,6.53,1.44,5.06a4.82,4.82,0,0,1-2.88,0ZM51.7,55.7A7.83,7.83,0,0,1,46.15,58H13.85A7.86,7.86,0,0,1,6,50.15,6.38,6.38,0,0,1,10.87,44l7.86-1.89c1.4,6.37,5.65,12.77,11.27,12.77s9.87-6.4,11.27-12.77L49.13,44A6.37,6.37,0,0,1,54,50.15,7.83,7.83,0,0,1,51.7,55.7ZM26.2,18.09A1,1,0,0,1,27,17a8.94,8.94,0,0,0,6.21-4.08,1,1,0,1,1,1.69,1.05,10.9,10.9,0,0,1-7.6,5h-.15A1,1,0,0,1,26.2,18.09ZM59,0H49.1a1,1,0,0,0-.92.62,1,1,0,0,0,.21,1.09l1.42,1.41-7.07,7.07a1,1,0,0,0,0,1.42l5.65,5.65a1,1,0,0,0,1.42,0l7.07-7.07,1.41,1.42a1,1,0,0,0,1.09.21A1,1,0,0,0,60,10.9V1A1,1,0,0,0,59,0ZM58,8.49l-.41-.42a1,1,0,0,0-1.42,0L49.1,15.14,44.86,10.9l7.07-7.07a1,1,0,0,0,0-1.42L51.51,2H58Zm1.38,19.69a1,1,0,0,0-1.09.21l-1.41,1.42-7.07-7.07a1,1,0,0,0-1.42,0l-5.65,5.65a1,1,0,0,0,0,1.42l7.07,7.07-1.42,1.41a1,1,0,0,0-.21,1.09,1,1,0,0,0,.92.62H59a1,1,0,0,0,1-1V29.1A1,1,0,0,0,59.38,28.18ZM58,38H51.51l.42-.41a1,1,0,0,0,0-1.42L44.86,29.1l4.24-4.24,7.07,7.07a1,1,0,0,0,1.42,0l.41-.42ZM.62,11.82a1,1,0,0,0,1.09-.21l1.41-1.42,7.07,7.07a1,1,0,0,0,1.42,0l5.65-5.65a1,1,0,0,0,0-1.42L10.19,3.12l1.42-1.41A1,1,0,0,0,11.82.62,1,1,0,0,0,10.9,0H1A1,1,0,0,0,0,1v9.9A1,1,0,0,0,.62,11.82ZM2,2H8.49l-.42.41a1,1,0,0,0,0,1.42l7.07,7.07L10.9,15.14,3.83,8.07a1,1,0,0,0-.71-.29,1,1,0,0,0-.71.29L2,8.49Zm9.82,37.38a1,1,0,0,0-.21-1.09l-1.42-1.41,7.07-7.07a1,1,0,0,0,0-1.42l-5.65-5.65a1,1,0,0,0-1.42,0L3.12,29.81,1.71,28.39a1,1,0,0,0-1.09-.21A1,1,0,0,0,0,29.1V39a1,1,0,0,0,1,1h9.9A1,1,0,0,0,11.82,39.38ZM2,38V31.51l.41.42a1,1,0,0,0,1.42,0l7.07-7.07,4.24,4.24L8.07,36.17a1,1,0,0,0,0,1.42l.42.41Z"/></svg>