<svg id="icon" xmlns="http://www.w3.org/2000/svg" viewBox="0 0 74 62"><defs><style>.cls-1{fill:#7e89a1;}</style></defs><title>icons</title><path class="cls-1" d="M72.75,38.67l-11.5-8a1,1,0,0,0-1.39.25L58.17,33.3l-.06-.07-4.26-2.86.5-4a21.41,21.41,0,0,0-1.81-12.23L49.09,6.87A7.39,7.39,0,0,0,44.8,3.06L35.49.12a2,2,0,0,0-1.84.25A2.06,2.06,0,0,0,32.74,2a7.43,7.43,0,0,0,3.61,6.28l4.36,2.57c-.91,3.4-1.35,5.1-1.56,6a17.19,17.19,0,0,0-9.78-5.12V10.42h1.1a1,1,0,0,0,1-1V5.21a1,1,0,0,0-1-1H23.11a1,1,0,0,0-1,1V9.42a1,1,0,0,0,1,1h1.1v1.31a19,19,0,0,0-2.27.52,4.45,4.45,0,0,0-1.47-1.7l0,0-6.86-4.4a4.13,4.13,0,0,0-2.47-.76,4.4,4.4,0,0,0-4.37,4.72A4.48,4.48,0,0,0,6.11,10,4.33,4.33,0,0,0,2.49,12l-.06.11-.06.12a4.35,4.35,0,0,0,.84,5.58,4.58,4.58,0,0,0-1.8,1.6A4.28,4.28,0,0,0,2.47,25.1,4.39,4.39,0,0,0,.92,26.4l0,0-.1.12a4.28,4.28,0,0,0,1.09,6l6,3.92a4.2,4.2,0,0,0,2.47.76,4.34,4.34,0,0,0,1.09-.15,1.23,1.23,0,0,0,.12.37,17,17,0,0,0,7.57,7.06l.19.1A18.31,18.31,0,0,0,24,46a1,1,0,0,0,.27.27l.51.34a14.79,14.79,0,0,0,12.14,1.68l2.76-.78,5.85,3.85.06,0-.72,1a1,1,0,0,0-.17.74,1,1,0,0,0,.42.65l11.49,8a1,1,0,0,0,.57.18,1,1,0,0,0,.82-.43L73,40.06A1,1,0,0,0,72.75,38.67ZM25.21,8.42h-1.1V6.21h5.36V8.42h-1.1a1,1,0,0,0-1,1v2.13c-.21,0-.41,0-.62,0l-.54,0V9.42A1,1,0,0,0,25.21,8.42ZM9,34.83,3,30.9A2.24,2.24,0,0,1,2,29.43a2.21,2.21,0,0,1,.33-1.65l0,0,.1-.12a2.32,2.32,0,0,1,1.9-1,3.4,3.4,0,0,1,.74.13A1,1,0,0,0,5.92,25L3.8,23.59a2.29,2.29,0,0,1-.71-3.13,2.31,2.31,0,0,1,2.82-.93,1,1,0,0,0,.91-1.78L4.76,16.44a2.3,2.3,0,0,1-.67-3.22.41.41,0,0,1,0-.09l.05-.1a2.45,2.45,0,0,1,3.2-.64l.66.41a1,1,0,0,0,1.28-.2,1,1,0,0,0,0-1.3,2.32,2.32,0,0,1-.18-2.9,2.4,2.4,0,0,1,3.31-.62l6.88,4.43a2.37,2.37,0,0,1,1,1.55A2.1,2.1,0,0,1,20,15.32l0,0-.1.12a2.3,2.3,0,0,1-1.9,1,3.6,3.6,0,0,1-.83-.14,1,1,0,0,0-.79,1.81l.26.17a2.29,2.29,0,0,1,.73,3.13l-.08.08a1.16,1.16,0,0,0-.16.21,2.07,2.07,0,0,1-1.84,1,3.27,3.27,0,0,1-.74-.14,1,1,0,0,0-1.16.57,1,1,0,0,0,.36,1.23l1.23.82a2.3,2.3,0,0,1,.71,3.13,2.42,2.42,0,0,1-2,1.12,2.22,2.22,0,0,1-.94-.18,1,1,0,0,0-1,1.73,2.35,2.35,0,0,1,.57,3.15l0,0-.1.12A2.36,2.36,0,0,1,9,34.83Zm11,7.9a15.06,15.06,0,0,1-6.69-6.23,1,1,0,0,0-.21-.24,4.26,4.26,0,0,0,.72-.75l0,0a.64.64,0,0,0,.1-.13,4.28,4.28,0,0,0,.52-4,4.44,4.44,0,0,0,2.88-2A4.26,4.26,0,0,0,17,24.34a3.94,3.94,0,0,0,1.77-1.51l.08-.08a1.15,1.15,0,0,0,.14-.17,4.4,4.4,0,0,0,.22-4.31,4.38,4.38,0,0,0,2.24-1.56l0,0,.1-.12a4.14,4.14,0,0,0,.78-2.36,15.53,15.53,0,0,1,4.35-.68,15.38,15.38,0,1,1-6.53,29.3Zm26.57,7-6.23-4.1a1.06,1.06,0,0,0-.83-.13l-3.21.91a12.77,12.77,0,0,1-8-.21A17.36,17.36,0,0,0,40.6,18.6a1,1,0,0,0,.34-.65c.1-.52,1.21-4.72,1.89-7.27a1,1,0,0,0-.45-1.12l-5-2.95a5.4,5.4,0,0,1-2.64-4.54A.1.1,0,0,1,34.83,2l9.33,3a5.36,5.36,0,0,1,3.12,2.76L50.73,15a19.52,19.52,0,0,1,1.64,11.11l-.58,4.59a1,1,0,0,0,.44,1L57,34.89l.06,0L46.69,49.81Zm10.3,9.89-9.85-6.82L60.93,32.84l9.85,6.9ZM31.2,28.37a4.4,4.4,0,0,0-.31-1.65l5.48-6.23a1,1,0,0,0,.24-.73,1,1,0,0,0-.34-.69l-1.89-1.64a1,1,0,0,0-1.4.09L27.3,23.9a3.21,3.21,0,0,0-.63-.06,4.53,4.53,0,1,0,4.53,4.53Zm-7.06,0a2.5,2.5,0,0,1,2.53-2.53,3.4,3.4,0,0,1,.74.13,1,1,0,0,0,1-.3l5.42-6.08.38.33L29,25.9a1,1,0,0,0-.11,1.16,2.59,2.59,0,0,1,.36,1.31,2.53,2.53,0,1,1-5.06,0Z"/></svg>