<svg id="icon" xmlns="http://www.w3.org/2000/svg" viewBox="0 0 60 60"><defs><style>.cls-1{fill:#e77051;}</style></defs><title>icons</title><path class="cls-1" d="M52,1H7A6,6,0,0,0,1,7V53a6,6,0,0,0,6,6H52a6,6,0,0,0,6-6V7A6,6,0,0,0,52,1Zm4,52a4,4,0,0,1-4,4H7a4,4,0,0,1-4-4V7A4,4,0,0,1,7,3H52a4,4,0,0,1,4,4ZM51,7H8A2,2,0,0,0,6,9V22a2,2,0,0,0,2,2H51a2,2,0,0,0,2-2V9A2,2,0,0,0,51,7Zm0,15H8V9H51Zm0,7H45a2,2,0,0,0-2,2V50a2,2,0,0,0,2,2h6a2,2,0,0,0,2-2V31A2,2,0,0,0,51,29Zm0,21H45V31h6ZM14,42H8a2,2,0,0,0-2,2v6a2,2,0,0,0,2,2h6a2,2,0,0,0,2-2V44A2,2,0,0,0,14,42Zm0,8H8V44h6Zm12-8H20a2,2,0,0,0-2,2v6a2,2,0,0,0,2,2h6a2,2,0,0,0,2-2V44A2,2,0,0,0,26,42Zm0,8H20V44h6Zm12-8H32a2,2,0,0,0-2,2v6a2,2,0,0,0,2,2h6a2,2,0,0,0,2-2V44A2,2,0,0,0,38,42Zm0,8H32V44h6ZM14,29H8a2,2,0,0,0-2,2v6a2,2,0,0,0,2,2h6a2,2,0,0,0,2-2V31A2,2,0,0,0,14,29Zm0,8H8V31h6Zm12-8H20a2,2,0,0,0-2,2v6a2,2,0,0,0,2,2h6a2,2,0,0,0,2-2V31A2,2,0,0,0,26,29Zm0,8H20V31h6Zm12-8H32a2,2,0,0,0-2,2v6a2,2,0,0,0,2,2h6a2,2,0,0,0,2-2V31A2,2,0,0,0,38,29Zm0,8H32V31h6ZM18,18H14V16h4Zm2.1-2.95-1.2-1.47,2.94-2.4h2.09v8.57H21.58V15.21c0-.55,0-1.05,0-1.51a4.58,4.58,0,0,1-.54.55ZM29,19.86a2.69,2.69,0,0,0,2.34-1.06,5.8,5.8,0,0,0,.76-3.33,5.74,5.74,0,0,0-.78-3.3A2.67,2.67,0,0,0,29,11.06a2.68,2.68,0,0,0-2.33,1.06,5.82,5.82,0,0,0-.76,3.35,5.71,5.71,0,0,0,.78,3.29A2.66,2.66,0,0,0,29,19.86Zm-.61-6.4c.13-.37.33-.55.61-.55s.49.19.61.57a7.48,7.48,0,0,1,.18,2,7.46,7.46,0,0,1-.17,2c-.12.38-.33.57-.62.57s-.48-.19-.61-.55a7.37,7.37,0,0,1-.18-2A7.51,7.51,0,0,1,28.4,13.46ZM35,19.75l4.75-8.57H41.5l-4.76,8.57Zm4.32-2.61a3.06,3.06,0,0,0,.59,2,1.93,1.93,0,0,0,1.6.73,2,2,0,0,0,1.65-.71,3.08,3.08,0,0,0,.58-2,3,3,0,0,0-.6-2,2,2,0,0,0-1.63-.72,2,2,0,0,0-1.61.69A3,3,0,0,0,39.32,17.14Zm1.87-.94c.08-.2.19-.3.34-.3s.28.11.35.34a4.37,4.37,0,0,1,0,1.86c-.07.22-.18.34-.35.34s-.26-.1-.33-.3a2.82,2.82,0,0,1-.12-1A3.2,3.2,0,0,1,41.19,16.2Zm-6.2.23a2,2,0,0,0,1.65-.7,3.06,3.06,0,0,0,.58-2,3,3,0,0,0-.6-2A2,2,0,0,0,35,11.06a2,2,0,0,0-1.61.69,3,3,0,0,0-.57,2,3.09,3.09,0,0,0,.58,2A2,2,0,0,0,35,16.43Zm-.31-3.64q.1-.3.33-.3c.15,0,.26.09.34.29a3.31,3.31,0,0,1,.1,1,3.31,3.31,0,0,1-.1,1c-.08.19-.19.29-.34.29s-.26-.1-.33-.3a3.16,3.16,0,0,1-.11-1A3.2,3.2,0,0,1,34.68,12.79Z"/></svg>