<svg id="icon" xmlns="http://www.w3.org/2000/svg" viewBox="0 0 64 60"><defs><style>.cls-1{fill:#5dba52;}</style></defs><title>icons</title><path class="cls-1" d="M58.68,6.71A15.71,15.71,0,0,0,47.14,1.92,20.71,20.71,0,0,0,32.58,8.23a.77.77,0,0,1-.53.24.64.64,0,0,1-.52-.23c-4.83-4.67-9.21-7-13-7A18.11,18.11,0,0,0,5.42,6.79a19.56,19.56,0,0,0,0,27l.82.81a1.29,1.29,0,0,0,.17.16L30.81,58.53a1.94,1.94,0,0,0,1.24.47,2.14,2.14,0,0,0,1.3-.53L58.67,33.83A19.68,19.68,0,0,0,64,20.19,19.24,19.24,0,0,0,58.68,6.71ZM32,56.93,9.49,35H18a1,1,0,0,0,1-.86l2.13-15.09L26,44.19a1,1,0,0,0,.92.81H27a1,1,0,0,0,.95-.7L33,28.24l2,6.08A1,1,0,0,0,36,35H54.6Zm25.22-24.5-.59.57H36.72L34,24.68A1,1,0,0,0,33,24h0a1,1,0,0,0-.94.7L27.23,40,22,12.81A1,1,0,0,0,21,12a1,1,0,0,0-1,.86L17.15,33H7.44l-.62-.6a17.55,17.55,0,0,1,0-24.22,16.1,16.1,0,0,1,11.64-5c3.28,0,7.2,2.18,11.61,6.46a2.67,2.67,0,0,0,1.94.81,2.78,2.78,0,0,0,2-.84A18.69,18.69,0,0,1,47.14,3.92,13.74,13.74,0,0,1,57.24,8.1,17.24,17.24,0,0,1,62,20.19,17.72,17.72,0,0,1,57.25,32.43ZM60,20.19a1,1,0,0,1-2,0,13.24,13.24,0,0,0-3.64-9.31,9.68,9.68,0,0,0-7.22-3A14.62,14.62,0,0,0,36.89,12.4,1,1,0,1,1,35.47,11,16.6,16.6,0,0,1,47.14,5.92,11.6,11.6,0,0,1,55.8,9.49,15.25,15.25,0,0,1,60,20.19Z"/></svg>