<svg id="icon" xmlns="http://www.w3.org/2000/svg" viewBox="0 0 70 59"><defs><style>.cls-1{fill:#a17ea1;}</style></defs><title>icons</title><path class="cls-1" d="M64,0H6A6,6,0,0,0,0,6V42a6,6,0,0,0,6,6H26v5H16a5,5,0,0,0-5,5,1,1,0,0,0,1,1H58a1,1,0,0,0,1-1,5,5,0,0,0-5-5H44V48H64a6,6,0,0,0,6-6V6A6,6,0,0,0,64,0ZM56.83,57H13.17A3,3,0,0,1,16,55H54A3,3,0,0,1,56.83,57ZM42,53H28V48H42ZM68,42a4,4,0,0,1-4,4H6a4,4,0,0,1-4-4V6A4,4,0,0,1,6,2H64a4,4,0,0,1,4,4ZM64,4H6A2,2,0,0,0,4,6V40a2,2,0,0,0,2,2H64a2,2,0,0,0,2-2V6A2,2,0,0,0,64,4Zm0,36H6V6H64ZM36.5,44A1.5,1.5,0,1,1,35,42.5,1.5,1.5,0,0,1,36.5,44ZM24.21,21.18A1,1,0,0,1,25.79,20l7.64,9.94L44.91,12.33a1,1,0,0,1,1.68,1.09L34.34,32.17a1,1,0,0,1-.8.45h0a1,1,0,0,1-.79-.4Z"/></svg>